<svg width="28" height="23" viewBox="0 0 28 23" fill="none" xmlns="http://www.w3.org/2000/svg">
<path d="M27.9964 10.15C27.9964 10.0949 27.982 10.0398 27.9605 9.99201C27.9569 9.98099 27.9497 9.96997 27.9425 9.95528C27.9318 9.93324 27.9174 9.9112 27.903 9.89283L20.9542 0.157962C20.8788 0.0551031 20.7603 0 20.6346 0H16.2858C16.196 0 16.1098 0.0220414 16.0416 0.0771445C16.038 0.0661239 16.0344 0.0551035 16.0272 0.0440829C15.9841 0.0697976 15.941 0.106533 15.9123 0.150615L13.9946 2.84699L12.077 0.161636C12.0015 0.0587769 11.883 0.00367376 11.7573 0.00367376H7.86815H7.4049H7.35103C7.22534 0.00367376 7.10684 0.0551034 7.03142 0.161636L0.0790046 9.90752C0.0538668 9.94059 0.0359112 9.97365 0.0215467 10.0104C0.0107733 10.0434 0.00359112 10.0765 0 10.1132C0 10.1169 0.0143643 10.1206 0.0143643 10.1243C0.0143643 10.1316 0.0251378 10.139 0.0251378 10.1463V22.5739C0.0251378 22.798 0.175965 22.9963 0.391432 22.9963H4.74028C4.95934 22.9963 5.15685 22.798 5.15685 22.5739V10.2822L9.57394 4.08864L13.991 10.2822V22.5775C13.991 22.8016 14.1419 23 14.3609 23H18.7098C18.9288 23 19.1263 22.8016 19.1263 22.5775V10.1647C19.1263 10.161 19.1156 10.1537 19.1156 10.15C19.1156 10.0949 19.0976 10.0398 19.0796 9.99201H19.0761C19.0725 9.98099 19.0653 9.96997 19.0581 9.95895C19.0473 9.93691 19.033 9.91487 19.0186 9.8965L16.6592 6.5793L18.444 4.08864L22.8647 10.2822V22.5775C22.8647 22.8016 23.0263 23 23.2453 23H27.5942C27.8133 23 28 22.8016 28 22.5775V10.1647C28 10.161 27.9964 10.1537 27.9964 10.15ZM20.4335 0.811851L26.8149 9.73854H23.4429L17.0614 0.811851H20.4335ZM11.5562 0.811851L17.9377 9.73854H14.5656L8.18417 0.811851H11.5562ZM0.815185 22.1918V10.5467H4.3704V22.1918H0.815185ZM4.54277 9.73854H1.17071L7.37976 1.03594L9.064 3.39802L4.54277 9.73854ZM14.7847 22.1918V10.5467H18.3399V22.1918H14.7847ZM16.1672 5.89235L14.483 3.53027L16.2606 1.03961L17.9449 3.40537L16.1672 5.89235ZM23.6547 22.1918V10.5467H27.21V22.1918H23.6547Z" fill="#E09D64"/>
</svg>
