<svg width="24" height="24" viewBox="0 0 24 24" fill="none" xmlns="http://www.w3.org/2000/svg">
<path d="M21.2251 0.147838C21.0298 -0.0492793 20.7134 -0.0492793 20.5181 0.147838L17.8896 2.80054C17.7959 2.89516 17.7432 3.02328 17.7432 3.15732V7.2613H15.1287V3.15732C15.1287 3.02328 15.0759 2.89516 14.9822 2.80054L12.3535 0.147838C12.1582 -0.0492793 11.8418 -0.0492793 11.6465 0.147838L9.01807 2.80054C8.92432 2.89516 8.87158 3.02328 8.87158 3.15732V7.2613H6.25708V3.15732C6.25708 3.02328 6.20435 2.89516 6.1106 2.80054L3.48218 0.147838C3.28687 -0.0492793 2.97046 -0.0492793 2.77515 0.147838L0.146484 2.80054C0.0527344 2.89516 0 3.02328 0 3.15732V23.4954C0 23.7743 0.223877 24 0.5 24H5.75708C6.0332 24 6.25708 23.7743 6.25708 23.4954V19.3416H8.87158V23.4954C8.87158 23.7743 9.09546 24 9.37158 24H14.6287C14.9048 24 15.1287 23.7743 15.1287 23.4954V19.3416H17.7432V23.4954C17.7432 23.7743 17.967 24 18.2432 24H23.5C23.7761 24 24 23.7743 24 23.4954V3.15732C24 3.02328 23.9473 2.89516 23.8535 2.80054L21.2251 0.147838ZM1 22.9908V3.36627L3.12866 1.21818L5.25708 3.36627V7.75616C5.25702 7.75961 5.25513 7.76247 5.25513 7.76592V18.837C5.25513 18.8405 5.25702 18.8433 5.25708 18.8468V22.9908H1ZM6.25708 18.3324V8.27054H8.87158V18.3324H6.25708ZM14.1287 22.9908H9.87158V3.36627L12 1.21818L14.1287 3.36627V22.9908ZM15.1287 18.3324V8.27054H17.7432V18.3324H15.1287ZM23 22.9908H18.7432V18.8468C18.7432 18.8433 18.7451 18.8405 18.7451 18.837V7.76592C18.7451 7.76247 18.7432 7.75961 18.7432 7.75616V3.36627L20.8716 1.21818L23 3.36627V22.9908Z" fill="#E09D64"/>
</svg>
