<svg width="28" height="27" viewBox="0 0 28 27" fill="none" xmlns="http://www.w3.org/2000/svg">
<path d="M27.3333 10.9688H17.79L17.2167 7.59375H22.6667V8.85938C22.6667 8.97127 22.7369 9.07857 22.8619 9.15769C22.987 9.23681 23.1565 9.28125 23.3333 9.28125C23.5101 9.28125 23.6797 9.23681 23.8047 9.15769C23.9298 9.07857 24 8.97127 24 8.85938V7.17188C24 7.05999 23.9298 6.95269 23.8047 6.87357C23.6797 6.79445 23.5101 6.75 23.3333 6.75H17.0767L16 0.377584C15.9826 0.273541 15.9048 0.17729 15.7816 0.107517C15.6584 0.0377448 15.4987 -0.000571709 15.3333 6.44866e-06H12.6667C12.5013 -0.000571709 12.3416 0.0377448 12.2184 0.107517C12.0952 0.17729 12.0174 0.273541 12 0.377584L10.9233 6.75H4.66667C4.48986 6.75 4.32029 6.79445 4.19526 6.87357C4.07024 6.95269 4 7.05999 4 7.17188V8.85938C4 8.97127 4.07024 9.07857 4.19526 9.15769C4.32029 9.23681 4.48986 9.28125 4.66667 9.28125C4.84348 9.28125 5.01305 9.23681 5.13807 9.15769C5.2631 9.07857 5.33333 8.97127 5.33333 8.85938V7.59375H10.7833L10.21 10.9688H0.666667C0.489856 10.9688 0.320287 11.0132 0.195262 11.0923C0.070238 11.1714 0 11.2787 0 11.3906V13.0781C0 13.19 0.070238 13.2973 0.195262 13.3764C0.320287 13.4556 0.489856 13.5 0.666667 13.5C0.843478 13.5 1.01305 13.4556 1.13807 13.3764C1.2631 13.2973 1.33333 13.19 1.33333 13.0781V11.8125H10.0667L8.06667 23.625H8C7.46957 23.625 6.96086 23.7583 6.58579 23.9957C6.21071 24.233 6 24.555 6 24.8906V26.1562H1.33333C1.15652 26.1562 0.986953 26.2007 0.861929 26.2798C0.736905 26.3589 0.666667 26.4662 0.666667 26.5781C0.666667 26.69 0.736905 26.7973 0.861929 26.8764C0.986953 26.9556 1.15652 27 1.33333 27H26.6667C26.8435 27 27.013 26.9556 27.1381 26.8764C27.2631 26.7973 27.3333 26.69 27.3333 26.5781C27.3333 26.4662 27.2631 26.3589 27.1381 26.2798C27.013 26.2007 26.8435 26.1562 26.6667 26.1562H22V24.8906C22 24.555 21.7893 24.233 21.4142 23.9957C21.0391 23.7583 20.5304 23.625 20 23.625H19.9333L17.9333 11.8125H26.6667V13.0781C26.6667 13.19 26.7369 13.2973 26.8619 13.3764C26.987 13.4556 27.1565 13.5 27.3333 13.5C27.5101 13.5 27.6797 13.4556 27.8047 13.3764C27.9298 13.2973 28 13.19 28 13.0781V11.3906C28 11.2787 27.9298 11.1714 27.8047 11.0923C27.6797 11.0132 27.5101 10.9688 27.3333 10.9688ZM13.2667 0.843756H14.7333L15.7333 6.75H12.2667L13.2667 0.843756ZM12.1233 7.59375H15.8767L16.45 10.9688H11.55L12.1233 7.59375ZM20.6667 24.8906V26.1562H7.33333V24.8906C7.33333 24.7787 7.40357 24.6714 7.52859 24.5923C7.65362 24.5132 7.82319 24.4688 8 24.4688H20C20.1768 24.4688 20.3464 24.5132 20.4714 24.5923C20.5964 24.6714 20.6667 24.7787 20.6667 24.8906ZM18.59 23.625H9.41L11.41 11.8125H16.59L18.59 23.625Z" fill="#E09D64"/>
</svg>
