<svg width="61" height="90" viewBox="0 0 61 90" fill="none" xmlns="http://www.w3.org/2000/svg">
<path opacity="0.5" d="M60.9727 0H61.9727V-1H60.9727V0ZM60.9727 90V91H61.9727V90H60.9727ZM36.9492 90H35.9492V91H36.9492V90ZM36.9492 21.2402H37.9492V18.973L36.2749 20.5018L36.9492 21.2402ZM13.6875 42.4805L12.9381 43.1426L13.6112 43.9043L14.3618 43.2189L13.6875 42.4805ZM0.123047 27.1289L-0.514831 26.3588L-1.30996 27.0173L-0.626332 27.791L0.123047 27.1289ZM32.877 0V-1H32.5166L32.2391 -0.770138L32.877 0ZM59.9727 0V90H61.9727V0H59.9727ZM60.9727 89H36.9492V91H60.9727V89ZM37.9492 90V21.2402H35.9492V90H37.9492ZM36.2749 20.5018L13.0132 41.742L14.3618 43.2189L37.6235 21.9787L36.2749 20.5018ZM14.4369 41.8183L0.872426 26.4668L-0.626332 27.791L12.9381 43.1426L14.4369 41.8183ZM0.760925 27.899L33.5148 0.770138L32.2391 -0.770138L-0.514831 26.3588L0.760925 27.899ZM32.877 1H60.9727V-1H32.877V1Z" fill="#E09D64"/>
</svg>
