<svg width="72" height="91" viewBox="0 0 72 91" fill="none" xmlns="http://www.w3.org/2000/svg">
<path opacity="0.5" d="M71.4863 72.2793H72.4863V71.2793H71.4863V72.2793ZM71.4863 91V92H72.4863V91H71.4863ZM0.441406 91H-0.558594V92H0.441406V91ZM1.61328 59.3301L0.643474 59.0861L0.642097 59.0918L1.61328 59.3301ZM32.1113 41.5469L32.3377 42.5209L32.3395 42.5205L32.1113 41.5469ZM44.0938 38.4707L44.4132 39.4184L44.4227 39.4151L44.0938 38.4707ZM47.6094 35.6875L46.7149 35.2402L46.7094 35.2516L47.6094 35.6875ZM47.4043 22.3574L46.5226 22.8293L46.5278 22.8389L47.4043 22.3574ZM27.5996 19.6328L27.8395 20.6037L27.8502 20.6009L27.5996 19.6328ZM24.2012 22.416L25.1216 22.8069L25.1235 22.8024L24.2012 22.416ZM23.2344 29.4473L22.2344 29.4353V29.4473H23.2344ZM23.2344 33.8711V34.8711H24.2344V33.8711H23.2344ZM0.441406 33.8711H-0.558594V34.8711H0.441406V33.8711ZM2.69727 14.6523L1.76813 14.2826L1.76651 14.2867L2.69727 14.6523ZM9.43555 5.80469L10.0076 6.62493L10.0086 6.62417L9.43555 5.80469ZM20.3047 1.46875L20.1207 0.485827L20.1199 0.48598L20.3047 1.46875ZM55.4316 2.23047L55.1766 3.1974L55.1801 3.19833L55.4316 2.23047ZM67.1211 10.375L66.2957 10.9395L66.2969 10.9414L67.1211 10.375ZM70.1387 41.0195L69.171 40.7671L69.1696 40.7728L70.1387 41.0195ZM66.1543 48.7246L65.4225 48.0431L65.4223 48.0433L66.1543 48.7246ZM46.6426 57.748L46.9033 58.7135L46.9072 58.7124L46.6426 57.748ZM36.3008 60.1797L36.5056 61.1585L36.5091 61.1578L36.3008 60.1797ZM27.7168 62.4648L28.0964 63.3901L28.1064 63.3858L27.7168 62.4648ZM24.3184 65.5996L23.4263 65.1476L23.4239 65.1524L24.3184 65.5996ZM23.2344 72.2793H22.2344V73.2793H23.2344V72.2793ZM70.4863 72.2793V91H72.4863V72.2793H70.4863ZM71.4863 90H0.441406V92H71.4863V90ZM1.44141 91V72.2793H-0.558594V91H1.44141ZM1.44141 72.2793C1.44141 66.865 1.83078 62.6397 2.58447 59.5684L0.642097 59.0918C-0.166721 62.3877 -0.558594 66.7952 -0.558594 72.2793H1.44141ZM2.58307 59.574C3.34227 56.5557 4.73746 54.1121 6.75361 52.205L5.37921 50.752C3.05941 52.9464 1.48586 55.7372 0.64349 59.0861L2.58307 59.574ZM6.75361 52.205C8.78946 50.2792 11.7302 48.5912 15.6359 47.1744L14.9539 45.2943C10.8909 46.7682 7.67929 48.5763 5.37921 50.752L6.75361 52.205ZM15.6359 47.1744C19.5651 45.7491 25.1259 44.1972 32.3377 42.5209L31.8849 40.5728C24.6437 42.2559 18.9935 43.829 14.9539 45.2943L15.6359 47.1744ZM32.3395 42.5205C38.5765 41.0587 42.6208 40.0225 44.4132 39.4183L43.7743 37.5231C42.0901 38.0908 38.1461 39.1054 31.8831 40.5733L32.3395 42.5205ZM44.4227 39.4151C46.3269 38.7518 47.7546 37.6816 48.5094 36.1234L46.7094 35.2516C46.2532 36.1934 45.3372 36.9787 43.7648 37.5263L44.4227 39.4151ZM48.5038 36.1347C49.2441 34.6541 49.5469 32.1932 49.5469 28.9492H47.5469C47.5469 32.1896 47.2246 34.2209 46.7149 35.2403L48.5038 36.1347ZM49.5469 28.9492C49.5469 25.8994 49.168 23.4912 48.2808 21.876L46.5278 22.8389C47.164 23.9971 47.5469 25.9834 47.5469 28.9492H49.5469ZM48.286 21.8855C47.393 20.2171 45.9096 19.1512 43.9554 18.6627L43.4704 20.603C44.9537 20.9738 45.9312 21.7243 46.5226 22.8293L48.286 21.8855ZM43.9554 18.6627C42.114 18.2023 39.4262 17.9883 35.9492 17.9883V19.9883C39.3863 19.9883 41.8743 20.2039 43.4704 20.603L43.9554 18.6627ZM35.9492 17.9883C32.038 17.9883 29.143 18.2004 27.349 18.6647L27.8502 20.6009C29.3766 20.2058 32.0479 19.9883 35.9492 19.9883V17.9883ZM27.3598 18.662C25.425 19.14 24.0189 20.263 23.2788 22.0296L25.1235 22.8024C25.5944 21.6784 26.4539 20.9459 27.8395 20.6036L27.3598 18.662ZM23.2807 22.0251C22.5937 23.6429 22.2737 26.1555 22.2344 29.4353L24.2343 29.4592C24.2731 26.2156 24.5977 24.0407 25.1216 22.8069L23.2807 22.0251ZM22.2344 29.4473V33.8711H24.2344V29.4473H22.2344ZM23.2344 32.8711H0.441406V34.8711H23.2344V32.8711ZM1.44141 33.8711V29.4473H-0.558594V33.8711H1.44141ZM1.44141 29.4473C1.44141 23.484 2.18597 18.6887 3.62802 15.018L1.76651 14.2867C0.200745 18.2723 -0.558594 23.3402 -0.558594 29.4473H1.44141ZM3.62639 15.0221C5.08777 11.3499 7.22083 8.56831 10.0076 6.62493L8.86353 4.98444C5.71277 7.18169 3.35364 10.2985 1.76814 14.2826L3.62639 15.0221ZM10.0086 6.62417C12.8608 4.62956 16.3454 3.23092 20.4895 2.45152L20.1199 0.48598C15.7484 1.30814 11.9869 2.80013 8.86244 4.9852L10.0086 6.62417ZM20.4887 2.45167C24.6862 1.66584 29.8355 1.26758 35.9492 1.26758V-0.732422C29.7583 -0.732422 24.4778 -0.329898 20.1207 0.485827L20.4887 2.45167ZM35.9492 1.26758C43.9331 1.26758 50.3319 1.91947 55.1766 3.1974L55.6867 1.26354C50.6095 -0.0757171 44.0201 -0.732422 35.9492 -0.732422V1.26758ZM55.1801 3.19833C59.9129 4.42811 63.6032 7.00296 66.2957 10.9395L67.9465 9.81046C64.9749 5.46579 60.8722 2.61095 55.6831 1.26261L55.1801 3.19833ZM66.2969 10.9414C68.9641 14.8226 70.3691 20.6604 70.3691 28.5977H72.3691C72.3691 20.4802 70.9421 14.1696 67.9453 9.80864L66.2969 10.9414ZM70.3691 28.5977C70.3691 33.6923 69.9612 37.7383 69.1711 40.7671L71.1063 41.272C71.9568 38.0117 72.3691 33.7764 72.3691 28.5977H70.3691ZM69.1696 40.7728C68.4023 43.7859 67.1436 46.1951 65.4225 48.0431L66.8861 49.4062C68.8759 47.2697 70.2735 44.5422 71.1077 41.2663L69.1696 40.7728ZM65.4223 48.0433C63.6969 49.8972 61.4057 51.4654 58.5168 52.7305L59.3191 54.5625C62.4068 53.2104 64.9398 51.4973 66.8863 49.4059L65.4223 48.0433ZM58.5168 52.7305C55.592 54.0113 51.5524 55.3636 46.3779 56.7837L46.9072 58.7124C52.1233 57.2809 56.2674 55.8989 59.3191 54.5625L58.5168 52.7305ZM46.3818 56.7826C43.7302 57.4988 40.3021 58.3051 36.0925 59.2016L36.5091 61.1578C40.7369 60.2574 44.2034 59.4426 46.9033 58.7135L46.3818 56.7826ZM36.0959 59.2009C31.9024 60.0786 28.9516 60.8566 27.3272 61.5439L28.1064 63.3858C29.5289 62.784 32.3007 62.0386 36.5056 61.1585L36.0959 59.2009ZM27.3372 61.5397C25.5924 62.2555 24.2773 63.468 23.4263 65.1476L25.2104 66.0516C25.8438 64.8015 26.7943 63.9242 28.0964 63.39L27.3372 61.5397ZM23.4239 65.1524C22.5949 66.8104 22.2344 69.228 22.2344 72.2793H24.2344C24.2344 69.315 24.5965 67.2795 25.2128 66.0468L23.4239 65.1524ZM23.2344 73.2793H71.4863V71.2793H23.2344V73.2793Z" fill="#E09D64"/>
</svg>
