<svg width="74" height="92" viewBox="0 0 74 92" fill="none" xmlns="http://www.w3.org/2000/svg">
<path opacity="0.5" d="M31.3242 53.6758H30.3242V54.6758H31.3242V53.6758ZM31.3242 36.2734V35.2734H30.3242V36.2734H31.3242ZM49.0195 22.7383L48.0708 23.0545L48.0737 23.0632L48.0768 23.0719L49.0195 22.7383ZM45.7383 19.8965L45.4093 20.8408L45.4126 20.842L45.7383 19.8965ZM29.3613 19.5156L29.5643 20.4948L29.5733 20.4929L29.3613 19.5156ZM25.6406 22.2402L24.7801 21.7307L24.7752 21.7392L25.6406 22.2402ZM24.3516 31.2344V32.2344H25.3516V31.2344H24.3516ZM1.55859 31.2344H0.558594V32.2344H1.55859V31.2344ZM5.68945 9.81836L4.86611 9.25081L4.86553 9.25166L5.68945 9.81836ZM50.7773 0.941406L50.6559 1.93401L50.6565 1.93408L50.7773 0.941406ZM61.2949 3.95898L61.7207 3.05417L61.2949 3.95898ZM69.3809 11.3418L68.5295 11.8664L68.5309 11.8687L69.3809 11.3418ZM58.6875 44.7988L58.5546 43.8077L57.6875 43.924V44.7988H58.6875ZM58.6875 45.7656H57.6875V46.7251L58.6462 46.7648L58.6875 45.7656ZM70.9922 78.9004L71.8915 79.3376L71.8925 79.3357L70.9922 78.9004ZM63.7559 86.957L63.2469 86.0962L63.2446 86.0976L63.7559 86.957ZM52.916 90.7363L53.0744 91.7237L53.0789 91.723L52.916 90.7363ZM11.2266 87.4258L10.747 88.3033L10.7531 88.3066L11.2266 87.4258ZM3.375 79.0762L2.4787 79.5197L2.48151 79.5253L3.375 79.0762ZM0.591797 59.4473V58.4473H-0.408203V59.4473H0.591797ZM23.4141 59.4473H24.4141V58.4473H23.4141V59.4473ZM24.9961 69.5254L24.1705 70.0897L24.1739 70.0946L24.9961 69.5254ZM29.332 72.4258L29.114 73.4018L29.126 73.4043L29.332 72.4258ZM45.3867 72.4258L45.5992 73.403L45.6093 73.4007L45.3867 72.4258ZM49.4004 69.5254L48.5362 69.0222L48.5342 69.0257L49.4004 69.5254ZM49.8984 56.9863L48.9978 57.4211L49.004 57.4335L49.8984 56.9863ZM46.1484 54.4961L45.8788 55.4591L45.8878 55.4615L46.1484 54.4961ZM37.0664 52.6758H31.3242V54.6758H37.0664V52.6758ZM32.3242 53.6758V36.2734H30.3242V53.6758H32.3242ZM31.3242 37.2734H37.0664V35.2734H31.3242V37.2734ZM37.0664 37.2734C40.9616 37.2734 43.873 37.0893 45.7398 36.6952L45.3266 34.7384C43.6778 35.0864 40.9446 35.2734 37.0664 35.2734V37.2734ZM45.7398 36.6952C47.6081 36.3008 49.1054 35.5287 49.8189 34.1567L48.0444 33.234C47.7423 33.815 46.9739 34.3906 45.3266 34.7384L45.7398 36.6952ZM49.8189 34.1567C50.4434 32.9557 50.6934 31.1685 50.6934 28.9492H48.6934C48.6934 31.1049 48.4356 32.4818 48.0444 33.234L49.8189 34.1567ZM50.6934 28.9492C50.6934 26.0634 50.4723 23.8461 49.9623 22.4047L48.0768 23.0719C48.4652 24.1695 48.6934 26.0928 48.6934 28.9492H50.6934ZM49.9682 22.4221C49.4069 20.7381 48.0001 19.6179 46.0639 18.951L45.4126 20.842C46.9921 21.386 47.7728 22.1603 48.0708 23.0545L49.9682 22.4221ZM46.0672 18.9521C44.1576 18.287 41.1199 17.9883 37.0664 17.9883V19.9883C41.0988 19.9883 43.8424 20.2951 45.4093 20.8408L46.0672 18.9521ZM37.0664 17.9883C33.5403 17.9883 30.8815 18.1627 29.1494 18.5383L29.5733 20.4929C31.0834 20.1654 33.5612 19.9883 37.0664 19.9883V17.9883ZM29.1583 18.5364C27.2647 18.929 25.7935 20.0192 24.7801 21.7307L26.5011 22.7497C27.2455 21.4925 28.2548 20.7663 29.5643 20.4948L29.1583 18.5364ZM24.7752 21.7392C23.7781 23.4615 23.3516 26.0875 23.3516 29.4473H25.3516C25.3516 26.1664 25.7844 23.9877 26.5061 22.7413L24.7752 21.7392ZM23.3516 29.4473V31.2344H25.3516V29.4473H23.3516ZM24.3516 30.2344H1.55859V32.2344H24.3516V30.2344ZM2.55859 31.2344V28.1289H0.558594V31.2344H2.55859ZM2.55859 28.1289C2.55859 20.0033 3.92886 14.1427 6.51338 10.3851L4.86553 9.25166C1.94223 13.5018 0.558594 19.8482 0.558594 28.1289H2.55859ZM6.51279 10.3859C9.13677 6.57929 12.8145 4.11791 17.6063 2.9992L17.1516 1.05158C11.9043 2.27662 7.78901 5.01055 4.86611 9.25081L6.51279 10.3859ZM17.6063 2.9992C22.5169 1.85275 29.3529 1.26758 38.1504 1.26758V-0.732422C29.2917 -0.732422 22.28 -0.145715 17.1516 1.05158L17.6063 2.9992ZM38.1504 1.26758C42.8666 1.26758 47.0337 1.49087 50.6559 1.93401L50.8988 -0.0511931C47.1772 -0.50649 42.9264 -0.732422 38.1504 -0.732422V1.26758ZM50.6565 1.93408C54.2437 2.37061 57.6465 3.34725 60.8691 4.8638L61.7207 3.05417C58.3028 1.44572 54.6938 0.410636 50.8981 -0.0512704L50.6565 1.93408ZM60.8691 4.8638C64.0003 6.33731 66.5531 8.6594 68.5295 11.8664L70.2322 10.8171C68.068 7.30544 65.2301 4.70566 61.7207 3.05417L60.8691 4.8638ZM68.5309 11.8687C70.4722 15.0004 71.4863 19.1933 71.4863 24.5254H73.4863C73.4863 18.9591 72.4302 14.3629 70.2308 10.8149L68.5309 11.8687ZM71.4863 24.5254C71.4863 30.1385 70.4792 34.5873 68.544 37.9417L70.2763 38.9411C72.4427 35.1861 73.4863 30.3576 73.4863 24.5254H71.4863ZM68.544 37.9417C66.6869 41.1607 63.4307 43.1538 58.5546 43.8077L58.8204 45.79C64.1396 45.0767 68.0319 42.8315 70.2763 38.9411L68.544 37.9417ZM57.6875 44.7988V45.7656H59.6875V44.7988H57.6875ZM58.6462 46.7648C63.3836 46.9606 66.7974 48.5783 69.0576 51.5104C71.3482 54.4818 72.5703 58.9513 72.5703 65.0723H74.5703C74.5703 58.7323 73.312 53.7535 70.6416 50.2894C67.9409 46.7859 63.9133 44.9808 58.7288 44.7665L58.6462 46.7648ZM72.5703 65.0723C72.5703 70.6464 71.7229 75.0919 70.0919 78.4651L71.8925 79.3357C73.699 75.5995 74.5703 70.8262 74.5703 65.0723H72.5703ZM70.0928 78.4631C68.4519 81.8384 66.1684 84.3691 63.2469 86.0962L64.2648 87.8178C67.5542 85.8731 70.095 83.0327 71.8915 79.3376L70.0928 78.4631ZM63.2446 86.0976C60.2823 87.86 56.7911 89.083 52.7531 89.7497L53.0789 91.723C57.3222 91.0224 61.0576 89.7259 64.2672 87.8164L63.2446 86.0976ZM52.7577 89.7489C48.6842 90.4022 43.818 90.7324 38.1504 90.7324V92.7324C43.8891 92.7324 48.8666 92.3986 53.0744 91.7237L52.7577 89.7489ZM38.1504 90.7324C32.0031 90.7324 26.8622 90.4696 22.7184 89.9492L22.4691 91.9336C26.7237 92.4679 31.9539 92.7324 38.1504 92.7324V90.7324ZM22.7184 89.9492C18.6287 89.4356 14.9599 88.2974 11.7001 86.545L10.7531 88.3066C14.2511 90.187 18.1604 91.3925 22.4691 91.9336L22.7184 89.9492ZM11.7061 86.5483C8.54126 84.8186 6.06091 82.1933 4.26849 78.6271L2.48151 79.5253C4.43909 83.42 7.19311 86.361 10.747 88.3033L11.7061 86.5483ZM4.27129 78.6327C2.50831 75.0696 1.5918 70.2971 1.5918 64.252H-0.408203C-0.408203 70.4725 0.530752 75.5827 2.47871 79.5196L4.27129 78.6327ZM1.5918 64.252V59.4473H-0.408203V64.252H1.5918ZM0.591797 60.4473H23.4141V58.4473H0.591797V60.4473ZM22.4141 59.4473V62.4355H24.4141V59.4473H22.4141ZM22.4141 62.4355C22.4141 65.6941 22.9473 68.3001 24.1705 70.0897L25.8217 68.9611C24.9355 67.6647 24.4141 65.5442 24.4141 62.4355H22.4141ZM24.1739 70.0946C25.3741 71.8282 27.0369 72.9377 29.114 73.4017L29.5501 71.4498C27.9553 71.0936 26.7275 70.2694 25.8183 68.9562L24.1739 70.0946ZM29.126 73.4043C31.0812 73.8159 33.7392 74.0117 37.0664 74.0117V72.0117C33.792 72.0117 31.2938 71.8169 29.538 71.4472L29.126 73.4043ZM37.0664 74.0117C40.8302 74.0117 43.6926 73.8174 45.5991 73.403L45.1743 71.4486C43.4871 71.8154 40.8026 72.0117 37.0664 72.0117V74.0117ZM45.6093 73.4007C47.6628 72.932 49.2413 71.8023 50.2666 70.0251L48.5342 69.0257C47.8017 70.2953 46.7044 71.0993 45.1642 71.4509L45.6093 73.4007ZM50.2646 70.0286C51.3014 68.2479 51.748 65.544 51.748 62.084H49.748C49.748 65.46 49.2962 67.7169 48.5362 69.0222L50.2646 70.0286ZM51.748 62.084C51.748 59.7673 51.4638 57.8809 50.7929 56.5391L49.004 57.4335C49.4659 58.3574 49.748 59.8694 49.748 62.084H51.748ZM50.799 56.5516C50.0662 55.0338 48.475 54.0885 46.4091 53.5307L45.8878 55.4615C47.7281 55.9584 48.6369 56.6733 48.9979 57.4211L50.799 56.5516ZM46.4181 53.5331C44.3272 52.9477 41.1861 52.6758 37.0664 52.6758V54.6758C41.1498 54.6758 44.0634 54.9508 45.8788 55.4591L46.4181 53.5331Z" fill="#E09D64"/>
</svg>
