<svg width="78" height="90" viewBox="0 0 78 90" fill="none" xmlns="http://www.w3.org/2000/svg">
<path opacity="0.5" d="M70.1504 0H71.1504V-1H70.1504V0ZM70.1504 54.8438H69.1504V55.8438H70.1504V54.8438ZM77.8262 54.8438H78.8262V53.8438H77.8262V54.8438ZM77.8262 72.2461V73.2461H78.8262V72.2461H77.8262ZM70.1504 72.2461V71.2461H69.1504V72.2461H70.1504ZM70.1504 90V91H71.1504V90H70.1504ZM47.3574 90H46.3574V91H47.3574V90ZM47.3574 72.2461H48.3574V71.2461H47.3574V72.2461ZM0.306641 72.2461H-0.693359V73.2461H0.306641V72.2461ZM0.306641 46.5527L-0.497167 45.9578L-0.693359 46.2229V46.5527H0.306641ZM34.7598 0V-1H34.2558L33.956 -0.594889L34.7598 0ZM47.3574 54.8438V55.8438H48.3574V54.8438H47.3574ZM47.3574 18.4863H48.3574V17.4863H47.3574V18.4863ZM46.5078 18.4863V17.4863H46.0085L45.7085 17.8854L46.5078 18.4863ZM19.1738 54.8438L18.3745 54.2428L17.1709 55.8438H19.1738V54.8438ZM69.1504 0V54.8438H71.1504V0H69.1504ZM70.1504 55.8438H77.8262V53.8438H70.1504V55.8438ZM76.8262 54.8438V72.2461H78.8262V54.8438H76.8262ZM77.8262 71.2461H70.1504V73.2461H77.8262V71.2461ZM69.1504 72.2461V90H71.1504V72.2461H69.1504ZM70.1504 89H47.3574V91H70.1504V89ZM48.3574 90V72.2461H46.3574V90H48.3574ZM47.3574 71.2461H0.306641V73.2461H47.3574V71.2461ZM1.30664 72.2461V46.5527H-0.693359V72.2461H1.30664ZM1.11045 47.1476L35.5636 0.594889L33.956 -0.594889L-0.497167 45.9578L1.11045 47.1476ZM34.7598 1H70.1504V-1H34.7598V1ZM48.3574 54.8438V18.4863H46.3574V54.8438H48.3574ZM47.3574 17.4863H46.5078V19.4863H47.3574V17.4863ZM45.7085 17.8854L18.3745 54.2428L19.9731 55.4447L47.3071 19.0873L45.7085 17.8854ZM19.1738 55.8438H47.3574V53.8438H19.1738V55.8438Z" fill="#E09D64"/>
</svg>
