<svg width="85" height="27" viewBox="0 0 85 27" fill="none" xmlns="http://www.w3.org/2000/svg">
<path d="M24.5898 0.804688H25.0898V0.304688H24.5898V0.804688ZM15.2266 0.804688V0.304688H14.8986L14.768 0.605465L15.2266 0.804688ZM8.51172 16.2617V16.7617H8.83965L8.97031 16.4609L8.51172 16.2617ZM8.125 16.2617H7.625V16.7617H8.125V16.2617ZM8.125 0.804688H8.625V0.304688H8.125V0.804688ZM0.730469 0.804688V0.304688H0.230469V0.804688H0.730469ZM0.730469 26H0.230469V26.5H0.730469V26ZM10.1875 26V26.5H10.5151L10.6459 26.1997L10.1875 26ZM16.9609 10.4492V9.94922H16.6334L16.5025 10.2496L16.9609 10.4492ZM17.1953 10.4492H17.6953V9.94922H17.1953V10.4492ZM17.1953 26H16.6953V26.5H17.1953V26ZM24.5898 26V26.5H25.0898V26H24.5898ZM24.5898 0.304688H15.2266V1.30469H24.5898V0.304688ZM14.768 0.605465L8.05312 16.0625L8.97031 16.4609L15.6852 1.00391L14.768 0.605465ZM8.51172 15.7617H8.125V16.7617H8.51172V15.7617ZM8.625 16.2617V0.804688H7.625V16.2617H8.625ZM8.125 0.304688H0.730469V1.30469H8.125V0.304688ZM0.230469 0.804688V26H1.23047V0.804688H0.230469ZM0.730469 26.5H10.1875V25.5H0.730469V26.5ZM10.6459 26.1997L17.4193 10.6489L16.5025 10.2496L9.7291 25.8003L10.6459 26.1997ZM16.9609 10.9492H17.1953V9.94922H16.9609V10.9492ZM16.6953 10.4492V26H17.6953V10.4492H16.6953ZM17.1953 26.5H24.5898V25.5H17.1953V26.5ZM25.0898 26V0.804688H24.0898V26H25.0898ZM32.957 0.804688V0.304688H32.457V0.804688H32.957ZM54.9414 0.804688H55.4414V0.304688H54.9414V0.804688ZM54.9414 26V26.5H55.4414V26H54.9414ZM46.6914 26H46.1914V26.5H46.6914V26ZM46.6914 6.85156H47.1914V6.35156H46.6914V6.85156ZM40.7383 6.85156V6.35156H40.2383V6.85156H40.7383ZM38.2656 23.7617L38.6233 24.1111L38.6241 24.1103L38.2656 23.7617ZM27.7773 26.0938H27.2773V26.5331L27.713 26.5896L27.7773 26.0938ZM27.7773 20.1406L27.8341 19.6439L27.2773 19.5802V20.1406H27.7773ZM32.2305 18.8633L31.7878 18.6307L31.7871 18.6321L32.2305 18.8633ZM32.957 1.30469H54.9414V0.304688H32.957V1.30469ZM54.4414 0.804688V26H55.4414V0.804688H54.4414ZM54.9414 25.5H46.6914V26.5H54.9414V25.5ZM47.1914 26V6.85156H46.1914V26H47.1914ZM46.6914 6.35156H40.7383V7.35156H46.6914V6.35156ZM40.2383 6.85156V14.9609H41.2383V6.85156H40.2383ZM40.2383 14.9609C40.2383 19.094 39.4166 21.8608 37.9072 23.4132L38.6241 24.1103C40.4115 22.272 41.2383 19.1717 41.2383 14.9609H40.2383ZM37.908 23.4123C36.3768 24.9798 34.2073 25.793 31.3281 25.793V26.793C34.4021 26.793 36.8576 25.9187 38.6233 24.1111L37.908 23.4123ZM31.3281 25.793C29.9999 25.793 28.8385 25.7273 27.8417 25.5979L27.713 26.5896C28.763 26.7259 29.9689 26.793 31.3281 26.793V25.793ZM28.2773 26.0938V20.1406H27.2773V26.0938H28.2773ZM27.7206 20.6374C28.287 20.7021 28.8645 20.7344 29.4531 20.7344V19.7344C28.9011 19.7344 28.3615 19.7041 27.8341 19.6439L27.7206 20.6374ZM29.4531 20.7344C30.9423 20.7344 32.0822 20.2292 32.6738 19.0944L31.7871 18.6321C31.4256 19.3255 30.714 19.7344 29.4531 19.7344V20.7344ZM32.6731 19.0958C33.2129 18.0684 33.457 16.6251 33.457 14.8203H32.457C32.457 16.5624 32.2167 17.8144 31.7878 18.6307L32.6731 19.0958ZM33.457 14.8203V0.804688H32.457V14.8203H33.457ZM84.2617 0.804688H84.7617V0.304688H84.2617V0.804688ZM74.8984 0.804688V0.304688H74.5705L74.4398 0.605465L74.8984 0.804688ZM68.1836 16.2617V16.7617H68.5115L68.6422 16.4609L68.1836 16.2617ZM67.7969 16.2617H67.2969V16.7617H67.7969V16.2617ZM67.7969 0.804688H68.2969V0.304688H67.7969V0.804688ZM60.4023 0.804688V0.304688H59.9023V0.804688H60.4023ZM60.4023 26H59.9023V26.5H60.4023V26ZM69.8594 26V26.5H70.187L70.3178 26.1997L69.8594 26ZM76.6328 10.4492V9.94922H76.3052L76.1744 10.2496L76.6328 10.4492ZM76.8672 10.4492H77.3672V9.94922H76.8672V10.4492ZM76.8672 26H76.3672V26.5H76.8672V26ZM84.2617 26V26.5H84.7617V26H84.2617ZM84.2617 0.304688H74.8984V1.30469H84.2617V0.304688ZM74.4398 0.605465L67.725 16.0625L68.6422 16.4609L75.357 1.00391L74.4398 0.605465ZM68.1836 15.7617H67.7969V16.7617H68.1836V15.7617ZM68.2969 16.2617V0.804688H67.2969V16.2617H68.2969ZM67.7969 0.304688H60.4023V1.30469H67.7969V0.304688ZM59.9023 0.804688V26H60.9023V0.804688H59.9023ZM60.4023 26.5H69.8594V25.5H60.4023V26.5ZM70.3178 26.1997L77.0912 10.6489L76.1744 10.2496L69.401 25.8003L70.3178 26.1997ZM76.6328 10.9492H76.8672V9.94922H76.6328V10.9492ZM76.3672 10.4492V26H77.3672V10.4492H76.3672ZM76.8672 26.5H84.2617V25.5H76.8672V26.5ZM84.7617 26V0.804688H83.7617V26H84.7617Z" fill="#181818"/>
</svg>
