<svg width="35" height="23" viewBox="0 0 35 23" fill="none" xmlns="http://www.w3.org/2000/svg">
<path opacity="0.4" d="M12.5967 1.02051L12.5293 1.51596L12.5317 1.51627L12.5967 1.02051ZM15.208 1.91602L14.9536 2.34648L14.9555 2.34755L15.208 1.91602ZM17.1152 18.8691L17.5688 19.0796L17.5692 19.0788L17.1152 18.8691ZM15.2148 21.0908L15.4677 21.5222L15.4685 21.5217L15.2148 21.0908ZM4.49609 21.7539L4.38312 22.241L4.38353 22.2411L4.49609 21.7539ZM1.52246 19.7305L1.11839 20.025L1.11899 20.0258L1.52246 19.7305ZM1.52246 3.27637L1.92594 3.57168L1.92653 3.57086L1.52246 3.27637ZM4.49609 1.24609L4.38353 0.758929L4.38312 0.759023L4.49609 1.24609ZM7.25781 5.53223L7.32274 6.02803L7.32852 6.0272L7.25781 5.53223ZM6.32812 5.93555L6.66341 6.3065L6.66726 6.30295L6.32812 5.93555ZM5.81543 6.98828L5.32658 6.8832L5.32567 6.88758L5.81543 6.98828ZM5.81543 16.0049L5.32565 16.1056L5.3266 16.11L5.81543 16.0049ZM6.32129 17.0645L5.97854 17.4286L5.98602 17.4354L6.32129 17.0645ZM7.27832 17.4678L7.21076 17.9632L7.27832 17.4678ZM10.8809 17.4678L10.8133 16.9724L10.8125 16.9725L10.8809 17.4678ZM11.8379 17.0645L12.1732 17.4354L12.1735 17.4351L11.8379 17.0645ZM12.3438 16.0049L11.854 15.9042L11.8531 15.9086L12.3438 16.0049ZM12.3438 6.98828L11.8531 7.08458L11.854 7.08898L12.3438 6.98828ZM11.8379 5.93555L11.5022 6.30617L11.5061 6.30964L11.8379 5.93555ZM10.9014 5.53223L10.8298 6.02713L10.8364 6.02799L10.9014 5.53223ZM9.08301 1.3291C10.4738 1.3291 11.6207 1.39245 12.5293 1.51595L12.664 0.525064C11.6951 0.393359 10.4996 0.329102 9.08301 0.329102V1.3291ZM12.5317 1.51627C13.4047 1.63069 14.2106 1.90741 14.9536 2.34648L15.4624 1.48555C14.6012 0.976706 13.6662 0.656415 12.6617 0.524748L12.5317 1.51627ZM14.9555 2.34755C15.6538 2.75624 16.227 3.40865 16.662 4.34208L17.5684 3.91964C17.0647 2.83874 16.3664 2.01459 15.4606 1.48448L14.9555 2.34755ZM16.662 4.34208C17.0886 5.25727 17.3193 6.53159 17.3193 8.19824H18.3193C18.3193 6.45604 18.0807 5.01878 17.5684 3.91964L16.662 4.34208ZM17.3193 8.19824V14.8018H18.3193V8.19824H17.3193ZM17.3193 14.8018C17.3193 16.4585 17.0888 17.7339 16.6613 18.6595L17.5692 19.0788C18.0805 17.9718 18.3193 16.5357 18.3193 14.8018H17.3193ZM16.6617 18.6587C16.2261 19.5976 15.6546 20.2518 14.9612 20.6599L15.4685 21.5217C16.3701 20.991 17.0656 20.1642 17.5688 19.0796L16.6617 18.6587ZM14.962 20.6595C14.2296 21.0888 13.4165 21.3645 12.5172 21.4838L12.6488 22.4751C13.6727 22.3393 14.6141 22.0225 15.4677 21.5222L14.962 20.6595ZM12.5172 21.4838C11.5843 21.6076 10.441 21.6709 9.08301 21.6709V22.6709C10.4685 22.6709 11.6585 22.6066 12.6488 22.4751L12.5172 21.4838ZM9.08301 21.6709C7.24919 21.6709 5.76141 21.5331 4.60866 21.2667L4.38353 22.2411C5.63702 22.5307 7.20719 22.6709 9.08301 22.6709V21.6709ZM4.60906 21.2668C3.53672 21.0181 2.64506 20.4177 1.92594 19.4352L1.11899 20.0258C1.96757 21.1852 3.05833 21.9337 4.38312 22.241L4.60906 21.2668ZM1.92653 19.436C1.23419 18.486 0.84668 16.9697 0.84668 14.8018H-0.15332C-0.15332 17.0543 0.243024 18.8239 1.11839 20.025L1.92653 19.436ZM0.84668 14.8018V8.19824H-0.15332V14.8018H0.84668ZM0.84668 8.19824C0.84668 6.02999 1.23429 4.51666 1.92594 3.57168L1.11899 2.98106C0.242923 4.178 -0.15332 5.94592 -0.15332 8.19824H0.84668ZM1.92653 3.57086C2.64588 2.58385 3.53744 1.98172 4.60906 1.73316L4.38312 0.759023C3.05761 1.06646 1.96675 1.81784 1.11839 2.98187L1.92653 3.57086ZM4.60866 1.73326C5.76141 1.4669 7.24919 1.3291 9.08301 1.3291V0.329102C7.20719 0.329102 5.63702 0.469296 4.38353 0.758929L4.60866 1.73326ZM9.08301 4.9502C8.24595 4.9502 7.6074 4.97721 7.1871 5.03725L7.32852 6.0272C7.67385 5.97787 8.2521 5.9502 9.08301 5.9502V4.9502ZM7.19289 5.03646C6.72825 5.09731 6.31589 5.26638 5.98899 5.56815L6.66726 6.30295C6.81431 6.16721 7.02175 6.06741 7.32273 6.02799L7.19289 5.03646ZM5.99286 5.56461C5.64543 5.87863 5.44193 6.34663 5.3266 6.8832L6.30426 7.09336C6.39856 6.65467 6.53686 6.42085 6.66339 6.30648L5.99286 5.56461ZM5.32567 6.88758C5.21514 7.42517 5.16504 8.16704 5.16504 9.09375H6.16504C6.16504 8.18842 6.2152 7.52665 6.30518 7.08898L5.32567 6.88758ZM5.16504 9.09375V13.9062H6.16504V9.09375H5.16504ZM5.16504 13.9062C5.16504 14.8286 5.21516 15.5681 5.32567 16.1056L6.30518 15.9042C6.21517 15.4664 6.16504 14.8068 6.16504 13.9062H5.16504ZM5.3266 16.11C5.44162 16.6451 5.64143 17.1112 5.97861 17.4286L6.66397 16.7004C6.5363 16.5802 6.39888 16.34 6.30426 15.8998L5.3266 16.11ZM5.98602 17.4354C6.3154 17.7331 6.73662 17.8985 7.21076 17.9632L7.34588 16.9724C7.01793 16.9276 6.80114 16.8242 6.65656 16.6935L5.98602 17.4354ZM7.21076 17.9632C7.64655 18.0226 8.27571 18.0498 9.08301 18.0498V17.0498C8.28614 17.0498 7.71217 17.0223 7.34588 16.9724L7.21076 17.9632ZM9.08301 18.0498C9.89006 18.0498 10.5174 18.0226 10.9492 17.9631L10.8125 16.9725C10.4513 17.0223 9.88013 17.0498 9.08301 17.0498V18.0498ZM10.9484 17.9632C11.4226 17.8985 11.8438 17.7331 12.1732 17.4354L11.5026 16.6935C11.358 16.8242 11.1412 16.9276 10.8133 16.9724L10.9484 17.9632ZM12.1735 17.4351C12.5271 17.1149 12.7282 16.6422 12.8344 16.1012L11.8531 15.9086C11.7679 16.3429 11.6318 16.5765 11.5023 16.6939L12.1735 17.4351ZM12.8335 16.1056C12.944 15.5681 12.9941 14.8286 12.9941 13.9062H11.9941C11.9941 14.8068 11.944 15.4664 11.854 15.9042L12.8335 16.1056ZM12.9941 13.9062V9.09375H11.9941V13.9062H12.9941ZM12.9941 9.09375C12.9941 8.16704 12.944 7.42517 12.8335 6.88758L11.854 7.08898C11.944 7.52665 11.9941 8.18842 11.9941 9.09375H12.9941ZM12.8344 6.89199C12.7283 6.3515 12.5268 5.8782 12.1696 5.56145L11.5061 6.30964C11.632 6.42128 11.7678 6.6498 11.8531 7.08458L12.8344 6.89199ZM12.1735 5.56494C11.8435 5.26604 11.4309 5.0973 10.9663 5.03646L10.8364 6.02799C11.1375 6.06741 11.3492 6.16755 11.5023 6.30615L12.1735 5.56494ZM10.9729 5.03737C10.5566 4.97718 9.91977 4.9502 9.08301 4.9502V5.9502C9.91422 5.9502 10.4896 5.9779 10.8298 6.02708L10.9729 5.03737ZM34.7793 1H35.2793V0.5H34.7793V1ZM34.7793 22V22.5H35.2793V22H34.7793ZM29.1738 22H28.6738V22.5H29.1738V22ZM29.1738 5.95605H29.6738V4.82243L28.8367 5.58682L29.1738 5.95605ZM23.7461 10.9121L23.3714 11.2432L23.7079 11.624L24.0832 11.2813L23.7461 10.9121ZM20.5811 7.33008L20.2621 6.94501L19.8645 7.2743L20.2064 7.66115L20.5811 7.33008ZM28.2236 1V0.5H28.0435L27.9047 0.614931L28.2236 1ZM34.2793 1V22H35.2793V1H34.2793ZM34.7793 21.5H29.1738V22.5H34.7793V21.5ZM29.6738 22V5.95605H28.6738V22H29.6738ZM28.8367 5.58682L23.4089 10.5429L24.0832 11.2813L29.511 6.32529L28.8367 5.58682ZM24.1208 10.581L20.9557 6.99901L20.2064 7.66115L23.3714 11.2432L24.1208 10.581ZM20.9 7.71515L28.5426 1.38507L27.9047 0.614931L20.2621 6.94501L20.9 7.71515ZM28.2236 1.5H34.7793V0.5H28.2236V1.5Z" fill="#E09D64"/>
</svg>
