<svg width="52" height="30" viewBox="0 0 52 30" fill="none" xmlns="http://www.w3.org/2000/svg">
<path opacity="0.4" d="M17.4526 0.527832L17.3853 1.02328L17.3877 1.02359L17.4526 0.527832ZM20.9966 1.74316L20.7422 2.17363L20.744 2.1747L20.9966 1.74316ZM23.585 24.751L24.0385 24.9614L24.0389 24.9606L23.585 24.751ZM21.0059 27.7661L21.2587 28.1975L21.2595 28.197L21.0059 27.7661ZM6.45898 28.666L6.34601 29.1531L6.34642 29.1532L6.45898 28.666ZM2.42334 25.9199L2.01927 26.2144L2.01986 26.2152L2.42334 25.9199ZM2.42334 3.58936L2.82682 3.88467L2.82741 3.88385L2.42334 3.58936ZM6.45898 0.833984L6.34642 0.34682L6.34601 0.346914L6.45898 0.833984ZM10.207 6.65088L10.272 7.14668L10.2777 7.14585L10.207 6.65088ZM8.94531 7.19824L9.2806 7.5692L9.28445 7.56564L8.94531 7.19824ZM8.24951 8.62695L7.76066 8.52187L7.75976 8.52626L8.24951 8.62695ZM8.24951 20.8638L7.75974 20.9645L7.76068 20.9688L8.24951 20.8638ZM8.93604 22.3018L8.59328 22.6659L8.60077 22.6727L8.93604 22.3018ZM15.124 22.8491L15.0565 22.3537L15.0557 22.3538L15.124 22.8491ZM16.4229 22.3018L16.7581 22.6727L16.7585 22.6724L16.4229 22.3018ZM17.1094 20.8638L16.6196 20.7631L16.6187 20.7675L17.1094 20.8638ZM17.1094 8.62695L16.6187 8.72325L16.6196 8.72765L17.1094 8.62695ZM16.4229 7.19824L16.0872 7.56886L16.0911 7.57234L16.4229 7.19824ZM15.1519 6.65088L15.0803 7.14578L15.0869 7.14665L15.1519 6.65088ZM12.6841 0.768066C14.5761 0.768066 16.1414 0.8542 17.3853 1.02328L17.52 0.0323877C16.2157 -0.14489 14.6019 -0.231934 12.6841 -0.231934V0.768066ZM17.3877 1.02359C18.596 1.18196 19.7127 1.56529 20.7422 2.17363L21.2509 1.3127C20.1034 0.634583 18.8575 0.207684 17.5176 0.0320722L17.3877 1.02359ZM20.744 2.1747C21.7288 2.75103 22.5291 3.66712 23.1318 4.96024L24.0382 4.53781C23.3667 3.0972 22.4414 2.00938 21.2491 1.31163L20.744 2.1747ZM23.1318 4.96024C23.7259 6.23513 24.0405 7.99367 24.0405 10.269H25.0405C25.0405 7.91811 24.7181 5.99664 24.0382 4.53781L23.1318 4.96024ZM24.0405 10.269V19.231H25.0405V10.269H24.0405ZM24.0405 19.231C24.0405 21.4931 23.7262 23.2528 23.131 24.5413L24.0389 24.9606C24.7178 23.4907 25.0405 21.5703 25.0405 19.231H24.0405ZM23.1314 24.5405C22.5282 25.8407 21.7305 26.7594 20.7522 27.3352L21.2595 28.197C22.446 27.4987 23.3677 26.4073 24.0385 24.9614L23.1314 24.5405ZM20.753 27.3348C19.7374 27.9301 18.611 28.3116 17.3683 28.4765L17.4999 29.4678C18.8672 29.2864 20.1219 28.8638 21.2587 28.1975L20.753 27.3348ZM17.3683 28.4765C16.092 28.6459 14.532 28.7319 12.6841 28.7319V29.7319C14.5595 29.7319 16.1662 29.6448 17.4999 29.4678L17.3683 28.4765ZM12.6841 28.7319C10.1878 28.7319 8.15399 28.5445 6.57155 28.1789L6.34642 29.1532C8.0296 29.5421 10.1458 29.7319 12.6841 29.7319V28.7319ZM6.57196 28.1789C5.07155 27.8309 3.82589 26.9896 2.82682 25.6246L2.01986 26.2152C3.14839 27.7571 4.59316 28.7465 6.34601 29.1531L6.57196 28.1789ZM2.82741 25.6254C1.85512 24.2914 1.32764 22.1883 1.32764 19.231H0.327637C0.327637 22.2729 0.863955 24.6292 2.01927 26.2144L2.82741 25.6254ZM1.32764 19.231V10.269H0.327637V19.231H1.32764ZM1.32764 10.269C1.32764 7.31141 1.85522 5.21213 2.82682 3.88467L2.01986 3.29405C0.863853 4.87348 0.327637 7.22733 0.327637 10.269H1.32764ZM2.82741 3.88385C3.8267 2.51273 5.07227 1.66889 6.57196 1.32105L6.34601 0.346914C4.59244 0.753635 3.14758 1.74671 2.01927 3.29486L2.82741 3.88385ZM6.57155 1.32115C8.15399 0.955509 10.1878 0.768066 12.6841 0.768066V-0.231934C10.1458 -0.231934 8.0296 -0.0420971 6.34642 0.34682L6.57155 1.32115ZM12.6841 6.03955C11.5492 6.03955 10.6933 6.07633 10.1363 6.1559L10.2777 7.14585C10.7598 7.07699 11.5553 7.03955 12.6841 7.03955V6.03955ZM10.1421 6.15511C9.54075 6.23386 9.01772 6.45095 8.60617 6.83084L9.28445 7.56564C9.51614 7.35178 9.83425 7.20396 10.272 7.14665L10.1421 6.15511ZM8.61004 6.82731C8.17798 7.21782 7.91345 7.81115 7.76068 8.52188L8.73835 8.73203C8.87008 8.11919 9.06941 7.76004 9.28058 7.56918L8.61004 6.82731ZM7.75976 8.52626C7.61342 9.238 7.54541 10.2305 7.54541 11.4844H8.54541C8.54541 10.2519 8.61347 9.33948 8.73927 8.72765L7.75976 8.52626ZM7.54541 11.4844V18.0156H8.54541V11.4844H7.54541ZM7.54541 18.0156C7.54541 19.2635 7.61344 20.2528 7.75976 20.9645L8.73927 20.7631C8.61345 20.1511 8.54541 19.2417 8.54541 18.0156H7.54541ZM7.76068 20.9688C7.91313 21.6781 8.17317 22.2704 8.59335 22.6659L9.27872 21.9377C9.06804 21.7394 8.87039 21.373 8.73835 20.7587L7.76068 20.9688ZM8.60077 22.6727C9.01478 23.0469 9.54994 23.2603 10.1673 23.3445L10.3024 22.3537C9.83125 22.2895 9.50052 22.138 9.27131 21.9308L8.60077 22.6727ZM10.1673 23.3445C10.7463 23.4235 11.5903 23.4604 12.6841 23.4604V22.4604C11.6008 22.4604 10.8119 22.4232 10.3024 22.3537L10.1673 23.3445ZM12.6841 23.4604C13.7776 23.4604 14.619 23.4235 15.1923 23.3444L15.0557 22.3538C14.5529 22.4232 13.7677 22.4604 12.6841 22.4604V23.4604ZM15.1916 23.3445C15.8089 23.2603 16.3441 23.0469 16.7581 22.6727L16.0876 21.9308C15.8584 22.138 15.5276 22.2895 15.0565 22.3537L15.1916 23.3445ZM16.7585 22.6724C17.1983 22.274 17.4597 21.6752 17.6 20.9601L16.6187 20.7675C16.4993 21.3759 16.303 21.7357 16.0872 21.9312L16.7585 22.6724ZM17.5991 20.9645C17.7454 20.2528 17.8135 19.2635 17.8135 18.0156H16.8135C16.8135 19.2417 16.7454 20.1511 16.6196 20.7631L17.5991 20.9645ZM17.8135 18.0156V11.4844H16.8135V18.0156H17.8135ZM17.8135 11.4844C17.8135 10.2305 17.7455 9.238 17.5991 8.52626L16.6196 8.72765C16.7454 9.33948 16.8135 10.2519 16.8135 11.4844H17.8135ZM17.6 8.53066C17.4598 7.81602 17.198 7.2174 16.7546 6.82415L16.0911 7.57234C16.3033 7.76047 16.4992 8.11432 16.6187 8.72325L17.6 8.53066ZM16.7585 6.82764C16.3422 6.45061 15.8181 6.23386 15.2168 6.15511L15.0869 7.14665C15.5247 7.20397 15.8479 7.35212 16.0872 7.56884L16.7585 6.82764ZM15.2234 6.15602C14.672 6.0763 13.8187 6.03955 12.6841 6.03955V7.03955C13.8131 7.03955 14.605 7.07702 15.0803 7.14573L15.2234 6.15602ZM51.2036 23.0718H51.7036V22.5718H51.2036V23.0718ZM51.2036 29V29.5H51.7036V29H51.2036ZM28.7061 29H28.2061V29.5H28.7061V29ZM29.0771 18.9712L28.5922 18.8492L28.5916 18.852L29.0771 18.9712ZM38.7349 13.3398L38.8481 13.8269L38.849 13.8267L38.7349 13.3398ZM42.5293 12.3657L42.689 12.8396L42.6938 12.8379L42.5293 12.3657ZM43.6426 11.4844L43.1953 11.2608L43.1926 11.2664L43.6426 11.4844ZM43.5776 7.26318L43.1368 7.49914L43.1394 7.50391L43.5776 7.26318ZM42.4087 6.40039L42.2874 6.88546L42.4087 6.40039ZM37.3062 6.40039L37.4261 6.88583L37.4314 6.88444L37.3062 6.40039ZM36.23 7.28174L36.6902 7.47718L36.6912 7.47493L36.23 7.28174ZM35.9238 9.5083L35.4238 9.50231V9.5083H35.9238ZM35.9238 10.9092V11.4092H36.4238V10.9092H35.9238ZM28.7061 10.9092H28.2061V11.4092H28.7061V10.9092ZM29.4204 4.82324L28.9558 4.63836L28.955 4.64042L29.4204 4.82324ZM31.5542 2.02148L31.8402 2.43161L31.8408 2.43123L31.5542 2.02148ZM34.9961 0.648438L34.9041 0.156976L34.9037 0.157053L34.9961 0.648438ZM46.1196 0.889648L45.9921 1.37311L45.9939 1.37358L46.1196 0.889648ZM49.8213 3.46875L49.4086 3.75102L49.4092 3.75193L49.8213 3.46875ZM50.7769 13.1729L50.293 13.0466L50.2923 13.0495L50.7769 13.1729ZM49.5151 15.6128L49.1493 15.272L49.1491 15.2722L49.5151 15.6128ZM43.3364 18.4702L43.4668 18.9529L43.4688 18.9524L43.3364 18.4702ZM40.0615 19.2402L40.164 19.7296L40.1657 19.7293L40.0615 19.2402ZM37.3433 19.9639L37.5331 20.4265L37.5381 20.4244L37.3433 19.9639ZM36.2671 20.9565L35.8211 20.7306L35.8199 20.7329L36.2671 20.9565ZM35.9238 23.0718H35.4238V23.5718H35.9238V23.0718ZM50.7036 23.0718V29H51.7036V23.0718H50.7036ZM51.2036 28.5H28.7061V29.5H51.2036V28.5ZM29.2061 29V23.0718H28.2061V29H29.2061ZM29.2061 23.0718C29.2061 21.3636 29.3291 20.0423 29.5627 19.0904L28.5916 18.852C28.3304 19.9163 28.2061 21.3287 28.2061 23.0718H29.2061ZM29.562 19.0932C29.7948 18.1677 30.2203 17.4257 30.8309 16.8481L30.1437 16.1216C29.3813 16.8429 28.8666 17.7584 28.5923 18.8492L29.562 19.0932ZM30.8309 16.8481C31.4514 16.2612 32.3578 15.7377 33.5802 15.2942L33.2392 14.3542C31.9381 14.8261 30.8963 15.4097 30.1437 16.1216L30.8309 16.8481ZM33.5802 15.2942C34.8143 14.8466 36.567 14.3571 38.8481 13.8269L38.6217 12.8528C36.3259 13.3864 34.5285 13.8865 33.2392 14.3542L33.5802 15.2942ZM38.849 13.8267C40.8216 13.3643 42.1115 13.0342 42.689 12.8395L42.3696 11.8919C41.8462 12.0683 40.6064 12.3876 38.6208 12.853L38.849 13.8267ZM42.6938 12.8379C43.3272 12.6173 43.8262 12.2523 44.0926 11.7023L43.1926 11.2664C43.0755 11.5081 42.8323 11.7307 42.3648 11.8935L42.6938 12.8379ZM44.0898 11.708C44.3454 11.1968 44.4395 10.3782 44.4395 9.35059H43.4395C43.4395 10.3764 43.3356 10.9803 43.1954 11.2608L44.0898 11.708ZM44.4395 9.35059C44.4395 8.3771 44.3198 7.57584 44.0159 7.02246L43.1394 7.50391C43.3178 7.82878 43.4395 8.41912 43.4395 9.35059H44.4395ZM44.0185 7.02725C43.7081 6.44727 43.192 6.08082 42.53 5.91532L42.2874 6.88546C42.714 6.9921 42.9772 7.20084 43.1368 7.49912L44.0185 7.02725ZM42.53 5.91532C41.9244 5.76392 41.0549 5.69629 39.9502 5.69629V6.69629C41.035 6.69629 41.8045 6.76473 42.2874 6.88546L42.53 5.91532ZM39.9502 5.69629C38.7108 5.69629 37.7735 5.76296 37.1809 5.91634L37.4314 6.88444C37.8903 6.76569 38.7157 6.69629 39.9502 6.69629V5.69629ZM37.1862 5.91499C36.5232 6.07879 36.0279 6.47019 35.7688 7.08855L36.6912 7.47493C36.8156 7.17792 37.0377 6.98175 37.4261 6.8858L37.1862 5.91499ZM35.7698 7.0863C35.5373 7.63379 35.4363 8.46038 35.4239 9.50231L36.4238 9.51429C36.4361 8.49046 36.5392 7.83268 36.6902 7.47718L35.7698 7.0863ZM35.4238 9.5083V10.9092H36.4238V9.5083H35.4238ZM35.9238 10.4092H28.7061V11.4092H35.9238V10.4092ZM29.2061 10.9092V9.5083H28.2061V10.9092H29.2061ZM29.2061 9.5083C29.2061 7.63311 29.4405 6.13957 29.8858 5.00607L28.955 4.64042C28.4479 5.93139 28.2061 7.56122 28.2061 9.5083H29.2061ZM29.885 5.00812C30.3364 3.87386 30.9911 3.02374 31.8402 2.43161L31.2682 1.61136C30.2371 2.33043 29.4693 3.34815 28.9558 4.63836L29.885 5.00812ZM31.8408 2.43123C32.719 1.81706 33.797 1.38271 35.0885 1.13982L34.9037 0.157053C33.4985 0.421322 32.282 0.902344 31.2676 1.61174L31.8408 2.43123ZM35.0881 1.1399C36.4027 0.89379 38.0213 0.768066 39.9502 0.768066V-0.231934C37.9826 -0.231934 36.2985 -0.104077 34.9041 0.156976L35.0881 1.1399ZM39.9502 0.768066C42.4704 0.768066 44.4793 0.974056 45.9921 1.37311L46.2472 0.406185C44.6181 -0.0235356 42.5139 -0.231934 39.9502 -0.231934V0.768066ZM45.9939 1.37358C47.4508 1.75214 48.5816 2.54184 49.4086 3.75102L50.234 3.18648C49.2674 1.77326 47.9304 0.843562 46.2454 0.405719L45.9939 1.37358ZM49.4092 3.75193C50.2236 4.93702 50.6665 6.74232 50.6665 9.23926H51.6665C51.6665 6.65221 51.2126 4.61051 50.2334 3.18557L49.4092 3.75193ZM50.6665 9.23926C50.6665 10.8449 50.5377 12.1087 50.293 13.0466L51.2607 13.2991C51.5355 12.2454 51.6665 10.8869 51.6665 9.23926H50.6665ZM50.2923 13.0495C50.0555 13.9795 49.6696 14.7133 49.1493 15.272L49.881 15.9536C50.5358 15.2506 50.9911 14.3577 51.2614 13.2962L50.2923 13.0495ZM49.1491 15.2722C48.623 15.8374 47.9197 16.3208 47.0231 16.7134L47.4242 17.6294C48.4202 17.1932 49.2445 16.6375 49.8811 15.9534L49.1491 15.2722ZM47.0231 16.7134C46.1085 17.1139 44.8389 17.5394 43.2041 17.988L43.4688 18.9524C45.1243 18.498 46.4462 18.0577 47.4242 17.6294L47.0231 16.7134ZM43.2061 17.9875C42.3708 18.2131 41.2888 18.4677 39.9574 18.7512L40.1657 19.7293C41.5062 19.4438 42.6074 19.185 43.4668 18.9529L43.2061 17.9875ZM39.9591 18.7508C38.6322 19.0286 37.6813 19.2779 37.1484 19.5034L37.5381 20.4244C37.97 20.2416 38.8313 20.0085 40.164 19.7296L39.9591 18.7508ZM37.1535 19.5013C36.5604 19.7446 36.1105 20.1593 35.8211 20.7306L36.7131 21.1825C36.8937 20.826 37.1613 20.579 37.533 20.4265L37.1535 19.5013ZM35.8199 20.7329C35.5379 21.2969 35.4238 22.0975 35.4238 23.0718H36.4238C36.4238 22.1411 36.5386 21.5315 36.7143 21.1801L35.8199 20.7329ZM35.9238 23.5718H51.2036V22.5718H35.9238V23.5718Z" fill="#E09D64"/>
</svg>
