<svg width="52" height="30" viewBox="0 0 52 30" fill="none" xmlns="http://www.w3.org/2000/svg">
<path opacity="0.4" d="M17.4526 0.527832L17.3853 1.02328L17.3877 1.02359L17.4526 0.527832ZM20.9966 1.74316L20.7422 2.17363L20.744 2.1747L20.9966 1.74316ZM23.585 24.751L24.0385 24.9614L24.0389 24.9606L23.585 24.751ZM21.0059 27.7661L21.2587 28.1975L21.2595 28.197L21.0059 27.7661ZM6.45898 28.666L6.34601 29.1531L6.34642 29.1532L6.45898 28.666ZM2.42334 25.9199L2.01927 26.2144L2.01986 26.2152L2.42334 25.9199ZM2.42334 3.58936L2.82682 3.88467L2.82741 3.88385L2.42334 3.58936ZM6.45898 0.833984L6.34642 0.34682L6.34601 0.346914L6.45898 0.833984ZM10.207 6.65088L10.272 7.14668L10.2777 7.14585L10.207 6.65088ZM8.94531 7.19824L9.2806 7.5692L9.28445 7.56564L8.94531 7.19824ZM8.24951 8.62695L7.76066 8.52187L7.75976 8.52626L8.24951 8.62695ZM8.24951 20.8638L7.75974 20.9645L7.76068 20.9688L8.24951 20.8638ZM8.93604 22.3018L8.59328 22.6659L8.60077 22.6727L8.93604 22.3018ZM15.124 22.8491L15.0565 22.3537L15.0557 22.3538L15.124 22.8491ZM16.4229 22.3018L16.7581 22.6727L16.7585 22.6724L16.4229 22.3018ZM17.1094 20.8638L16.6196 20.7631L16.6187 20.7675L17.1094 20.8638ZM17.1094 8.62695L16.6187 8.72325L16.6196 8.72765L17.1094 8.62695ZM16.4229 7.19824L16.0872 7.56886L16.0911 7.57234L16.4229 7.19824ZM15.1519 6.65088L15.0803 7.14578L15.0869 7.14665L15.1519 6.65088ZM12.6841 0.768066C14.5761 0.768066 16.1414 0.8542 17.3853 1.02328L17.52 0.0323877C16.2157 -0.14489 14.6019 -0.231934 12.6841 -0.231934V0.768066ZM17.3877 1.02359C18.596 1.18196 19.7127 1.56529 20.7422 2.17363L21.2509 1.3127C20.1034 0.634583 18.8575 0.207684 17.5176 0.0320722L17.3877 1.02359ZM20.744 2.1747C21.7288 2.75103 22.5291 3.66712 23.1318 4.96024L24.0382 4.53781C23.3667 3.0972 22.4414 2.00938 21.2491 1.31163L20.744 2.1747ZM23.1318 4.96024C23.7259 6.23513 24.0405 7.99367 24.0405 10.269H25.0405C25.0405 7.91811 24.7181 5.99664 24.0382 4.53781L23.1318 4.96024ZM24.0405 10.269V19.231H25.0405V10.269H24.0405ZM24.0405 19.231C24.0405 21.4931 23.7262 23.2528 23.131 24.5413L24.0389 24.9606C24.7178 23.4907 25.0405 21.5703 25.0405 19.231H24.0405ZM23.1314 24.5405C22.5282 25.8407 21.7305 26.7594 20.7522 27.3352L21.2595 28.197C22.446 27.4987 23.3677 26.4073 24.0385 24.9614L23.1314 24.5405ZM20.753 27.3348C19.7374 27.9301 18.611 28.3116 17.3683 28.4765L17.4999 29.4678C18.8672 29.2864 20.1219 28.8638 21.2587 28.1975L20.753 27.3348ZM17.3683 28.4765C16.092 28.6459 14.532 28.7319 12.6841 28.7319V29.7319C14.5595 29.7319 16.1662 29.6448 17.4999 29.4678L17.3683 28.4765ZM12.6841 28.7319C10.1878 28.7319 8.15399 28.5445 6.57155 28.1789L6.34642 29.1532C8.0296 29.5421 10.1458 29.7319 12.6841 29.7319V28.7319ZM6.57196 28.1789C5.07155 27.8309 3.82589 26.9896 2.82682 25.6246L2.01986 26.2152C3.14839 27.7571 4.59316 28.7465 6.34601 29.1531L6.57196 28.1789ZM2.82741 25.6254C1.85512 24.2914 1.32764 22.1883 1.32764 19.231H0.327637C0.327637 22.2729 0.863955 24.6292 2.01927 26.2144L2.82741 25.6254ZM1.32764 19.231V10.269H0.327637V19.231H1.32764ZM1.32764 10.269C1.32764 7.31141 1.85522 5.21213 2.82682 3.88467L2.01986 3.29405C0.863853 4.87348 0.327637 7.22733 0.327637 10.269H1.32764ZM2.82741 3.88385C3.8267 2.51273 5.07227 1.66889 6.57196 1.32105L6.34601 0.346914C4.59244 0.753635 3.14758 1.74671 2.01927 3.29486L2.82741 3.88385ZM6.57155 1.32115C8.15399 0.955509 10.1878 0.768066 12.6841 0.768066V-0.231934C10.1458 -0.231934 8.0296 -0.0420971 6.34642 0.34682L6.57155 1.32115ZM12.6841 6.03955C11.5492 6.03955 10.6933 6.07633 10.1363 6.1559L10.2777 7.14585C10.7598 7.07699 11.5553 7.03955 12.6841 7.03955V6.03955ZM10.1421 6.15511C9.54075 6.23386 9.01772 6.45095 8.60617 6.83084L9.28445 7.56564C9.51614 7.35178 9.83425 7.20396 10.272 7.14665L10.1421 6.15511ZM8.61004 6.82731C8.17798 7.21782 7.91345 7.81115 7.76068 8.52188L8.73835 8.73203C8.87008 8.11919 9.06941 7.76004 9.28058 7.56918L8.61004 6.82731ZM7.75976 8.52626C7.61342 9.238 7.54541 10.2305 7.54541 11.4844H8.54541C8.54541 10.2519 8.61347 9.33948 8.73927 8.72765L7.75976 8.52626ZM7.54541 11.4844V18.0156H8.54541V11.4844H7.54541ZM7.54541 18.0156C7.54541 19.2635 7.61344 20.2528 7.75976 20.9645L8.73927 20.7631C8.61345 20.1511 8.54541 19.2417 8.54541 18.0156H7.54541ZM7.76068 20.9688C7.91313 21.6781 8.17317 22.2704 8.59335 22.6659L9.27872 21.9377C9.06804 21.7394 8.87039 21.373 8.73835 20.7587L7.76068 20.9688ZM8.60077 22.6727C9.01478 23.0469 9.54994 23.2603 10.1673 23.3445L10.3024 22.3537C9.83125 22.2895 9.50052 22.138 9.27131 21.9308L8.60077 22.6727ZM10.1673 23.3445C10.7463 23.4235 11.5903 23.4604 12.6841 23.4604V22.4604C11.6008 22.4604 10.8119 22.4232 10.3024 22.3537L10.1673 23.3445ZM12.6841 23.4604C13.7776 23.4604 14.619 23.4235 15.1923 23.3444L15.0557 22.3538C14.5529 22.4232 13.7677 22.4604 12.6841 22.4604V23.4604ZM15.1916 23.3445C15.8089 23.2603 16.3441 23.0469 16.7581 22.6727L16.0876 21.9308C15.8584 22.138 15.5276 22.2895 15.0565 22.3537L15.1916 23.3445ZM16.7585 22.6724C17.1983 22.274 17.4597 21.6752 17.6 20.9601L16.6187 20.7675C16.4993 21.3759 16.303 21.7357 16.0872 21.9312L16.7585 22.6724ZM17.5991 20.9645C17.7454 20.2528 17.8135 19.2635 17.8135 18.0156H16.8135C16.8135 19.2417 16.7454 20.1511 16.6196 20.7631L17.5991 20.9645ZM17.8135 18.0156V11.4844H16.8135V18.0156H17.8135ZM17.8135 11.4844C17.8135 10.2305 17.7455 9.238 17.5991 8.52626L16.6196 8.72765C16.7454 9.33948 16.8135 10.2519 16.8135 11.4844H17.8135ZM17.6 8.53066C17.4598 7.81602 17.198 7.2174 16.7546 6.82415L16.0911 7.57234C16.3033 7.76047 16.4992 8.11432 16.6187 8.72325L17.6 8.53066ZM16.7585 6.82764C16.3422 6.45061 15.8181 6.23386 15.2168 6.15511L15.0869 7.14665C15.5247 7.20397 15.8479 7.35212 16.0872 7.56884L16.7585 6.82764ZM15.2234 6.15602C14.672 6.0763 13.8187 6.03955 12.6841 6.03955V7.03955C13.8131 7.03955 14.605 7.07702 15.0803 7.14573L15.2234 6.15602ZM38.1689 17.1807H37.6689V17.6807H38.1689V17.1807ZM38.1689 11.6699V11.1699H37.6689V11.6699H38.1689ZM43.7725 7.38379L43.298 7.54193L43.3011 7.55058L43.7725 7.38379ZM42.7334 6.48389L42.5689 6.95607L42.5706 6.95663L42.7334 6.48389ZM37.5474 6.36328L37.6489 6.85289L37.6533 6.85192L37.5474 6.36328ZM36.3691 7.22607L35.9389 6.97132L35.9364 6.97556L36.3691 7.22607ZM35.9609 10.0742V10.5742H36.4609V10.0742H35.9609ZM28.7432 10.0742H28.2432V10.5742H28.7432V10.0742ZM30.0513 3.29248L29.6396 3.00871L29.6393 3.00913L30.0513 3.29248ZM44.3291 0.481445L44.2684 0.977745L44.2687 0.977784L44.3291 0.481445ZM50.2202 3.7749L49.7946 4.03723L49.7952 4.03834L50.2202 3.7749ZM50.2295 12.3564L49.7964 12.1066L50.2295 12.3564ZM46.834 14.3696L46.7675 13.8741L46.334 13.9322V14.3696H46.834ZM46.834 14.6758H46.334V15.1555L46.8133 15.1754L46.834 14.6758ZM50.7305 25.1685L51.1801 25.3871L51.1806 25.3861L50.7305 25.1685ZM48.439 27.7197L48.1845 27.2893L48.1833 27.29L48.439 27.7197ZM45.0063 28.9165L45.0855 29.4102L45.0878 29.4098L45.0063 28.9165ZM31.8047 27.8682L31.5649 28.3069L31.5679 28.3086L31.8047 27.8682ZM29.3184 25.2241L28.8702 25.4459L28.8716 25.4487L29.3184 25.2241ZM28.437 19.0083V18.5083H27.937V19.0083H28.437ZM35.6641 19.0083H36.1641V18.5083H35.6641V19.0083ZM36.165 22.1997L35.7523 22.4819L35.7539 22.4843L36.165 22.1997ZM37.5381 23.1182L37.4291 23.6062L37.4351 23.6074L37.5381 23.1182ZM42.6221 23.1182L42.7283 23.6068L42.7333 23.6056L42.6221 23.1182ZM43.8931 22.1997L43.461 21.9481L43.46 21.9498L43.8931 22.1997ZM44.0508 18.229L43.6005 18.4464L43.6036 18.4526L44.0508 18.229ZM42.8633 17.4404L42.7285 17.9219L42.7329 17.9231L42.8633 17.4404ZM39.9873 16.6807H38.1689V17.6807H39.9873V16.6807ZM38.6689 17.1807V11.6699H37.6689V17.1807H38.6689ZM38.1689 12.1699H39.9873V11.1699H38.1689V12.1699ZM39.9873 12.1699C41.2224 12.1699 42.1606 12.1119 42.7717 11.9829L42.5652 11.0044C42.063 11.1104 41.2138 11.1699 39.9873 11.1699V12.1699ZM42.7717 11.9829C43.3837 11.8537 43.9246 11.5912 44.1882 11.0842L43.301 10.6228C43.243 10.7343 43.0665 10.8986 42.5652 11.0044L42.7717 11.9829ZM44.1882 11.0842C44.4074 10.6628 44.4858 10.0592 44.4858 9.35059H43.4858C43.4858 10.0274 43.4035 10.4258 43.301 10.6228L44.1882 11.0842ZM44.4858 9.35059C44.4858 8.43405 44.4165 7.70495 44.2438 7.217L43.3011 7.55058C43.4129 7.86666 43.4858 8.44876 43.4858 9.35059H44.4858ZM44.2468 7.22568C44.0449 6.62003 43.542 6.23358 42.8962 6.01114L42.5706 6.95663C43.0381 7.11765 43.2279 7.33115 43.2981 7.5419L44.2468 7.22568ZM42.8979 6.01171C42.2617 5.79013 41.2729 5.69629 39.9873 5.69629V6.69629C41.2623 6.69629 42.1042 6.79418 42.5689 6.95606L42.8979 6.01171ZM39.9873 5.69629C38.8688 5.69629 38.0102 5.75128 37.4414 5.87464L37.6533 6.85192C38.1112 6.75263 38.8793 6.69629 39.9873 6.69629V5.69629ZM37.4459 5.87369C36.7927 6.00911 36.2845 6.38771 35.9389 6.97133L36.7994 7.48082C37.0105 7.12434 37.2877 6.92774 37.6489 6.85287L37.4459 5.87369ZM35.9364 6.97556C35.5954 7.56459 35.4609 8.43715 35.4609 9.5083H36.4609C36.4609 8.47659 36.5986 7.82766 36.8019 7.47659L35.9364 6.97556ZM35.4609 9.5083V10.0742H36.4609V9.5083H35.4609ZM35.9609 9.57422H28.7432V10.5742H35.9609V9.57422ZM29.2432 10.0742V9.09082H28.2432V10.0742H29.2432ZM29.2432 9.09082C29.2432 6.53193 29.6759 4.72059 30.4632 3.57583L29.6393 3.00913C28.6825 4.40017 28.2432 6.4544 28.2432 9.09082H29.2432ZM30.4629 3.57625C31.2665 2.41058 32.391 1.65612 33.8666 1.31161L33.6393 0.3378C31.9359 0.735479 30.5926 1.62621 29.6396 3.00871L30.4629 3.57625ZM33.8666 1.31161C35.4017 0.953229 37.5503 0.768066 40.3306 0.768066V-0.231934C37.5197 -0.231934 35.2832 -0.0460023 33.6393 0.3378L33.8666 1.31161ZM40.3306 0.768066C41.8186 0.768066 43.1305 0.838532 44.2684 0.977745L44.3898 -0.0148544C43.2022 -0.160146 41.8484 -0.231934 40.3306 -0.231934V0.768066ZM44.2687 0.977784C45.3855 1.11369 46.4442 1.4176 47.4468 1.88942L47.8726 0.984602C46.7723 0.466837 45.6106 0.133703 44.3895 -0.014893L44.2687 0.977784ZM47.4468 1.88942C48.4036 2.33972 49.1859 3.04959 49.7946 4.03723L50.6459 3.51258C49.9433 2.37261 49.0186 1.52389 47.8726 0.984602L47.4468 1.88942ZM49.7952 4.03834C50.3863 4.99188 50.7036 6.28266 50.7036 7.94971H51.7036C51.7036 6.16558 51.3653 4.67316 50.6452 3.51147L49.7952 4.03834ZM50.7036 7.94971C50.7036 9.70709 50.388 11.0811 49.7964 12.1066L50.6626 12.6063C51.3698 11.3805 51.7036 9.81668 51.7036 7.94971H50.7036ZM49.7964 12.1066C49.2438 13.0644 48.271 13.6724 46.7675 13.8741L46.9004 14.8652C48.6255 14.6339 49.9163 13.8998 50.6626 12.6063L49.7964 12.1066ZM46.334 14.3696V14.6758H47.334V14.3696H46.334ZM46.8133 15.1754C48.2725 15.2357 49.2973 15.7308 49.9727 16.6069C50.6632 17.5027 51.0469 18.8713 51.0469 20.7896H52.0469C52.0469 18.7618 51.6451 17.1385 50.7647 15.9964C49.8691 14.8346 48.5374 14.2458 46.8546 14.1762L46.8133 15.1754ZM51.0469 20.7896C51.0469 22.5382 50.7807 23.9159 50.2803 24.9508L51.1806 25.3861C51.7688 24.1697 52.0469 22.6281 52.0469 20.7896H51.0469ZM50.2808 24.9498C49.7754 25.9893 49.0759 26.7623 48.1845 27.2893L48.6934 28.1501C49.7688 27.5144 50.597 26.5865 51.1801 25.3871L50.2808 24.9498ZM48.1833 27.29C47.2679 27.8346 46.1848 28.2152 44.9249 28.4232L45.0878 29.4098C46.4503 29.1849 47.6556 28.7676 48.6946 28.1494L48.1833 27.29ZM44.9272 28.4228C43.6496 28.6277 42.1188 28.7319 40.3306 28.7319V29.7319C42.1543 29.7319 43.7407 29.6259 45.0855 29.4102L44.9272 28.4228ZM40.3306 28.7319C38.3885 28.7319 36.7687 28.6489 35.4666 28.4853L35.342 29.4775C36.6994 29.648 38.3638 29.7319 40.3306 29.7319V28.7319ZM35.4666 28.4853C34.1916 28.3252 33.0519 27.9709 32.0414 27.4278L31.5679 28.3086C32.6975 28.9158 33.9575 29.3037 35.342 29.4775L35.4666 28.4853ZM32.0445 27.4294C31.0779 26.9012 30.3176 26.0987 29.7651 24.9996L28.8716 25.4487C29.5067 26.7121 30.4038 27.6724 31.5649 28.3069L32.0445 27.4294ZM29.7665 25.0024C29.2252 23.9083 28.937 22.428 28.937 20.5298H27.937C27.937 22.5157 28.2364 24.1649 28.8702 25.4459L29.7665 25.0024ZM28.937 20.5298V19.0083H27.937V20.5298H28.937ZM28.437 19.5083H35.6641V18.5083H28.437V19.5083ZM35.1641 19.0083V19.9546H36.1641V19.0083H35.1641ZM35.1641 19.9546C35.1641 21.0002 35.334 21.8699 35.7523 22.4819L36.5778 21.9176C36.3281 21.5523 36.1641 20.9252 36.1641 19.9546H35.1641ZM35.7539 22.4843C36.1607 23.0718 36.7271 23.4493 37.4291 23.6061L37.6471 22.6302C37.1863 22.5273 36.8374 22.2924 36.5761 21.9151L35.7539 22.4843ZM37.4351 23.6074C38.0725 23.7416 38.9288 23.8037 39.9873 23.8037V22.8037C38.9553 22.8037 38.1788 22.7421 37.6411 22.6289L37.4351 23.6074ZM39.9873 23.8037C41.1817 23.8037 42.1044 23.7424 42.7283 23.6068L42.5159 22.6296C42.0017 22.7414 41.1679 22.8037 39.9873 22.8037V23.8037ZM42.7333 23.6056C43.4307 23.4464 43.9746 23.0589 44.3262 22.4496L43.46 21.9498C43.2549 22.3054 42.9515 22.5301 42.5108 22.6307L42.7333 23.6056ZM44.3252 22.4513C44.6789 21.8438 44.8198 20.9466 44.8198 19.8433H43.8198C43.8198 20.9046 43.6763 21.5784 43.461 21.9481L44.3252 22.4513ZM44.8198 19.8433C44.8198 19.1003 44.7296 18.4686 44.498 18.0054L43.6036 18.4526C43.7307 18.7069 43.8198 19.1514 43.8198 19.8433H44.8198ZM44.5011 18.0116C44.2349 17.4604 43.6685 17.1399 42.9936 16.9577L42.7329 17.9231C43.2951 18.0749 43.5203 18.2802 43.6005 18.4464L44.5011 18.0116ZM42.9981 16.9589C42.3107 16.7665 41.2952 16.6807 39.9873 16.6807V17.6807C41.2771 17.6807 42.1789 17.768 42.7285 17.9219L42.9981 16.9589Z" fill="#E09D64"/>
</svg>
