<svg width="53" height="30" viewBox="0 0 53 30" fill="none" xmlns="http://www.w3.org/2000/svg">
<path opacity="0.4" d="M17.4526 0.527832L17.3853 1.02328L17.3877 1.02359L17.4526 0.527832ZM20.9966 1.74316L20.7422 2.17363L20.744 2.1747L20.9966 1.74316ZM23.585 24.751L24.0385 24.9614L24.0389 24.9606L23.585 24.751ZM21.0059 27.7661L21.2587 28.1975L21.2595 28.197L21.0059 27.7661ZM6.45898 28.666L6.34601 29.1531L6.34642 29.1532L6.45898 28.666ZM2.42334 25.9199L2.01927 26.2144L2.01986 26.2152L2.42334 25.9199ZM2.42334 3.58936L2.82682 3.88467L2.82741 3.88385L2.42334 3.58936ZM6.45898 0.833984L6.34642 0.34682L6.34601 0.346914L6.45898 0.833984ZM10.207 6.65088L10.272 7.14668L10.2777 7.14585L10.207 6.65088ZM8.94531 7.19824L9.2806 7.5692L9.28445 7.56564L8.94531 7.19824ZM8.24951 8.62695L7.76066 8.52187L7.75976 8.52626L8.24951 8.62695ZM8.24951 20.8638L7.75974 20.9645L7.76068 20.9688L8.24951 20.8638ZM8.93604 22.3018L8.59328 22.6659L8.60077 22.6727L8.93604 22.3018ZM15.124 22.8491L15.0565 22.3537L15.0557 22.3538L15.124 22.8491ZM16.4229 22.3018L16.7581 22.6727L16.7585 22.6724L16.4229 22.3018ZM17.1094 20.8638L16.6196 20.7631L16.6187 20.7675L17.1094 20.8638ZM17.1094 8.62695L16.6187 8.72325L16.6196 8.72765L17.1094 8.62695ZM16.4229 7.19824L16.0872 7.56886L16.0911 7.57234L16.4229 7.19824ZM15.1519 6.65088L15.0803 7.14578L15.0869 7.14665L15.1519 6.65088ZM12.6841 0.768066C14.5761 0.768066 16.1414 0.8542 17.3853 1.02328L17.52 0.0323877C16.2157 -0.14489 14.6019 -0.231934 12.6841 -0.231934V0.768066ZM17.3877 1.02359C18.596 1.18196 19.7127 1.56529 20.7422 2.17363L21.2509 1.3127C20.1034 0.634583 18.8575 0.207684 17.5176 0.0320722L17.3877 1.02359ZM20.744 2.1747C21.7288 2.75103 22.5291 3.66712 23.1318 4.96024L24.0382 4.53781C23.3667 3.0972 22.4414 2.00938 21.2491 1.31163L20.744 2.1747ZM23.1318 4.96024C23.7259 6.23513 24.0405 7.99367 24.0405 10.269H25.0405C25.0405 7.91811 24.7181 5.99664 24.0382 4.53781L23.1318 4.96024ZM24.0405 10.269V19.231H25.0405V10.269H24.0405ZM24.0405 19.231C24.0405 21.4931 23.7262 23.2528 23.131 24.5413L24.0389 24.9606C24.7178 23.4907 25.0405 21.5703 25.0405 19.231H24.0405ZM23.1314 24.5405C22.5282 25.8407 21.7305 26.7594 20.7522 27.3352L21.2595 28.197C22.446 27.4987 23.3677 26.4073 24.0385 24.9614L23.1314 24.5405ZM20.753 27.3348C19.7374 27.9301 18.611 28.3116 17.3683 28.4765L17.4999 29.4678C18.8672 29.2864 20.1219 28.8638 21.2587 28.1975L20.753 27.3348ZM17.3683 28.4765C16.092 28.6459 14.532 28.7319 12.6841 28.7319V29.7319C14.5595 29.7319 16.1662 29.6448 17.4999 29.4678L17.3683 28.4765ZM12.6841 28.7319C10.1878 28.7319 8.15399 28.5445 6.57155 28.1789L6.34642 29.1532C8.0296 29.5421 10.1458 29.7319 12.6841 29.7319V28.7319ZM6.57196 28.1789C5.07155 27.8309 3.82589 26.9896 2.82682 25.6246L2.01986 26.2152C3.14839 27.7571 4.59316 28.7465 6.34601 29.1531L6.57196 28.1789ZM2.82741 25.6254C1.85512 24.2914 1.32764 22.1883 1.32764 19.231H0.327637C0.327637 22.2729 0.863955 24.6292 2.01927 26.2144L2.82741 25.6254ZM1.32764 19.231V10.269H0.327637V19.231H1.32764ZM1.32764 10.269C1.32764 7.31141 1.85522 5.21213 2.82682 3.88467L2.01986 3.29405C0.863853 4.87348 0.327637 7.22733 0.327637 10.269H1.32764ZM2.82741 3.88385C3.8267 2.51273 5.07227 1.66889 6.57196 1.32105L6.34601 0.346914C4.59244 0.753635 3.14758 1.74671 2.01927 3.29486L2.82741 3.88385ZM6.57155 1.32115C8.15399 0.955509 10.1878 0.768066 12.6841 0.768066V-0.231934C10.1458 -0.231934 8.0296 -0.0420971 6.34642 0.34682L6.57155 1.32115ZM12.6841 6.03955C11.5492 6.03955 10.6933 6.07633 10.1363 6.1559L10.2777 7.14585C10.7598 7.07699 11.5553 7.03955 12.6841 7.03955V6.03955ZM10.1421 6.15511C9.54075 6.23386 9.01772 6.45095 8.60617 6.83084L9.28445 7.56564C9.51614 7.35178 9.83425 7.20396 10.272 7.14665L10.1421 6.15511ZM8.61004 6.82731C8.17798 7.21782 7.91345 7.81115 7.76068 8.52188L8.73835 8.73203C8.87008 8.11919 9.06941 7.76004 9.28058 7.56918L8.61004 6.82731ZM7.75976 8.52626C7.61342 9.238 7.54541 10.2305 7.54541 11.4844H8.54541C8.54541 10.2519 8.61347 9.33948 8.73927 8.72765L7.75976 8.52626ZM7.54541 11.4844V18.0156H8.54541V11.4844H7.54541ZM7.54541 18.0156C7.54541 19.2635 7.61344 20.2528 7.75976 20.9645L8.73927 20.7631C8.61345 20.1511 8.54541 19.2417 8.54541 18.0156H7.54541ZM7.76068 20.9688C7.91313 21.6781 8.17317 22.2704 8.59335 22.6659L9.27872 21.9377C9.06804 21.7394 8.87039 21.373 8.73835 20.7587L7.76068 20.9688ZM8.60077 22.6727C9.01478 23.0469 9.54994 23.2603 10.1673 23.3445L10.3024 22.3537C9.83125 22.2895 9.50052 22.138 9.27131 21.9308L8.60077 22.6727ZM10.1673 23.3445C10.7463 23.4235 11.5903 23.4604 12.6841 23.4604V22.4604C11.6008 22.4604 10.8119 22.4232 10.3024 22.3537L10.1673 23.3445ZM12.6841 23.4604C13.7776 23.4604 14.619 23.4235 15.1923 23.3444L15.0557 22.3538C14.5529 22.4232 13.7677 22.4604 12.6841 22.4604V23.4604ZM15.1916 23.3445C15.8089 23.2603 16.3441 23.0469 16.7581 22.6727L16.0876 21.9308C15.8584 22.138 15.5276 22.2895 15.0565 22.3537L15.1916 23.3445ZM16.7585 22.6724C17.1983 22.274 17.4597 21.6752 17.6 20.9601L16.6187 20.7675C16.4993 21.3759 16.303 21.7357 16.0872 21.9312L16.7585 22.6724ZM17.5991 20.9645C17.7454 20.2528 17.8135 19.2635 17.8135 18.0156H16.8135C16.8135 19.2417 16.7454 20.1511 16.6196 20.7631L17.5991 20.9645ZM17.8135 18.0156V11.4844H16.8135V18.0156H17.8135ZM17.8135 11.4844C17.8135 10.2305 17.7455 9.238 17.5991 8.52626L16.6196 8.72765C16.7454 9.33948 16.8135 10.2519 16.8135 11.4844H17.8135ZM17.6 8.53066C17.4598 7.81602 17.198 7.2174 16.7546 6.82415L16.0911 7.57234C16.3033 7.76047 16.4992 8.11432 16.6187 8.72325L17.6 8.53066ZM16.7585 6.82764C16.3422 6.45061 15.8181 6.23386 15.2168 6.15511L15.0869 7.14665C15.5247 7.20397 15.8479 7.35212 16.0872 7.56884L16.7585 6.82764ZM15.2234 6.15602C14.672 6.0763 13.8187 6.03955 12.6841 6.03955V7.03955C13.8131 7.03955 14.605 7.07702 15.0803 7.14573L15.2234 6.15602ZM49.8306 0.5H50.3306V0H49.8306V0.5ZM49.8306 17.8672H49.3306V18.3672H49.8306V17.8672ZM52.2612 17.8672H52.7612V17.3672H52.2612V17.8672ZM52.2612 23.3779V23.8779H52.7612V23.3779H52.2612ZM49.8306 23.3779V22.8779H49.3306V23.3779H49.8306ZM49.8306 29V29.5H50.3306V29H49.8306ZM42.6128 29H42.1128V29.5H42.6128V29ZM42.6128 23.3779H43.1128V22.8779H42.6128V23.3779ZM27.7134 23.3779H27.2134V23.8779H27.7134V23.3779ZM27.7134 15.2417L27.3115 14.9443L27.2134 15.0768V15.2417H27.7134ZM38.6235 0.5V0H38.3715L38.2216 0.202556L38.6235 0.5ZM42.6128 17.8672V18.3672H43.1128V17.8672H42.6128ZM42.6128 6.354H43.1128V5.854H42.6128V6.354ZM42.3438 6.354V5.854H42.0941L41.9441 6.05354L42.3438 6.354ZM33.688 17.8672L33.2883 17.5667L32.6865 18.3672H33.688V17.8672ZM49.3306 0.5V17.8672H50.3306V0.5H49.3306ZM49.8306 18.3672H52.2612V17.3672H49.8306V18.3672ZM51.7612 17.8672V23.3779H52.7612V17.8672H51.7612ZM52.2612 22.8779H49.8306V23.8779H52.2612V22.8779ZM49.3306 23.3779V29H50.3306V23.3779H49.3306ZM49.8306 28.5H42.6128V29.5H49.8306V28.5ZM43.1128 29V23.3779H42.1128V29H43.1128ZM42.6128 22.8779H27.7134V23.8779H42.6128V22.8779ZM28.2134 23.3779V15.2417H27.2134V23.3779H28.2134ZM28.1153 15.5391L39.0254 0.797444L38.2216 0.202556L27.3115 14.9443L28.1153 15.5391ZM38.6235 1H49.8306V0H38.6235V1ZM43.1128 17.8672V6.354H42.1128V17.8672H43.1128ZM42.6128 5.854H42.3438V6.854H42.6128V5.854ZM41.9441 6.05354L33.2883 17.5667L34.0876 18.1677L42.7434 6.65447L41.9441 6.05354ZM33.688 18.3672H42.6128V17.3672H33.688V18.3672Z" fill="#E09D64"/>
</svg>
